HIERARCHY
ROOT pelvis
{
  OFFSET 0 100 0
  CHANNELS 6 Xposition Yposition Zposition Zrotation Xrotation Yrotation
  JOINT pelvis_right_femur
  {
    OFFSET -10.78128 -3.44521 -0.5502486
    CHANNELS 3 Zrotation Xrotation Yrotation
    JOINT right_femur_tibia
    {
      OFFSET -0.8047443 -44.0398 -0.1307829
      CHANNELS 3 Zrotation Xrotation Yrotation
      JOINT right_tibia_foot
      {
        OFFSET 3.006224 -47.83518 -5
        CHANNELS 3 Zrotation Xrotation Yrotation
        End Site
        {
          OFFSET 0 -5 15
        }
      }
    }
  }
  JOINT pelvis_left_femur
  {
    OFFSET 10.78128 -3.44521 -0.5502486
    CHANNELS 3 Zrotation Xrotation Yrotation
    JOINT left_femur_tibia
    {
      OFFSET 0.8047443 -44.0398 -0.1307829
      CHANNELS 3 Zrotation Xrotation Yrotation
      JOINT left_tibia_foot
      {
        OFFSET -4.370144 -48.10324 -4.275266
        CHANNELS 3 Zrotation Xrotation Yrotation
        End Site
        {
          OFFSET 0 -5 15
        }
      }
    }
  }
  JOINT pelvis_spine1
  {
    OFFSET 0 6.468898 -3.129235
    CHANNELS 3 Zrotation Xrotation Yrotation
    JOINT spine1
    {
      OFFSET 0 23.15396 4.99043
      CHANNELS 3 Zrotation Xrotation Yrotation
      JOINT spine2
      {
        OFFSET 0 20.79997 -5.064912
        CHANNELS 3 Zrotation Xrotation Yrotation
        JOINT neck
        {
          OFFSET 0 14.38658 9.616178
          CHANNELS 3 Zrotation Xrotation Yrotation
          End Site
          {
            OFFSET 0 20 0
          }
        }
      }
      JOINT right_manubrium
      {
        OFFSET -5.722621 16.35077 3.967754
        CHANNELS 3 Zrotation Xrotation Yrotation
        JOINT right_clavicle
        {
          OFFSET -13.16364 1.694482 -4.693211
          CHANNELS 3 Zrotation Xrotation Yrotation
          JOINT right_humerus
          {
            OFFSET -28.5034 -0.3100689 -2.792744
            CHANNELS 3 Zrotation Xrotation Yrotation
            JOINT right_radius
            {
              OFFSET -25.15693 0.02248979 -1.271978
              CHANNELS 3 Zrotation Xrotation Yrotation
              End Site
              {
                OFFSET -15 0 0
              }
            }
          }
        }
      }
      JOINT left_manubrium
      {
        OFFSET 5.722621 16.35077 3.967754
        CHANNELS 3 Zrotation Xrotation Yrotation
        JOINT left_clavicle
        {
          OFFSET 13.16364 1.694482 -4.693211
          CHANNELS 3 Zrotation Xrotation Yrotation
          JOINT left_humerus
          {
            OFFSET 29.39168 -1.063119 -2.237045
            CHANNELS 3 Zrotation Xrotation Yrotation
            JOINT left_radius
            {
              OFFSET 24.59957 -0.9528479 0.9047498
              CHANNELS 3 Zrotation Xrotation Yrotation
              End Site
              {
                OFFSET 15 -0 -0
              }
            }
          }
        }
      }
    }
  }
}
MOTION
Frames: 15
Frame Time: 0.0416666666667
1920.794 96.30491 2145.468 5.351702 0.7001479 77.89729 0.310541 16.68159 5.873251 -0 37.22882 -0 3.221359 -2.197486 -2.251347 -2.602157 -21.32648 -5.660039 -0 21.27938 -0 -4.589502 -7.978683 19.04425 -2.636433 -1.080975 8.517967 -1.212687 10.80452 -3.45165 1.606257 20.6197 5.773405 3.023139 -18.33805 6.323212 3.035039 -21.29261 11.40577 80.45278 26.3966 -6.267991 -0 0 23.37278 -25.48705 10.64186 15.75668 4.029109 -15.30511 -2.530224 -93.30836 21.43588 26.73769 0 0 -8.958414 -1.656343 3.899236 16.42419
1928.161 97.36545 2145.608 5.752297 0.925539 78.59509 -0.1047825 12.59825 6.5262 -0 47.11121 -0 4.713117 1.188284 -3.631006 -3.907923 -17.14867 -6.351975 -0 22.83605 -0 -4.082276 -8.682419 18.02756 -2.953356 -1.293967 8.264563 -1.26129 11.6284 -4.124646 1.435816 20.03826 6.022637 3.114002 -18.19312 6.303022 4.169352 -20.81494 11.78609 81.34448 27.02678 -8.155993 -0 0 22.65652 -25.60092 11.66183 15.65151 3.588855 -15.65337 -3.112618 -92.07345 21.12071 26.0136 0 0 -10.16481 -1.880582 2.778984 17.05061
1935.109 98.81522 2145.596 6.09675 1.054632 79.72908 -0.2922424 6.586857 6.370492 -0 55.54331 -0 5.192236 2.275237 -4.83485 -5.08333 -11.94341 -7.314381 -0 22.27887 -0 -3.505196 -10.13067 16.70502 -3.245813 -1.080758 7.429009 -1.094343 11.81277 -4.928776 1.21331 20.04231 6.268144 2.946953 -17.89153 6.471444 4.980523 -19.93043 11.86797 82.44559 27.88535 -10.18574 -0 0 21.28987 -24.70091 12.35797 14.96232 3.234203 -16.08929 -3.600506 -90.30597 21.69297 23.97004 0 0 -11.92372 -1.926347 2.497181 17.13698
1941.348 100.2153 2145.486 6.474639 1.067203 81.22674 -0.3934413 -0.5169021 5.306068 -0 59.67852 -0 4.292311 0.7443928 -5.696152 -5.862889 -6.129951 -8.417152 -0 19.42882 -0 -3.161156 -12.34878 15.41081 -3.44235 -0.4170435 6.031714 -0.7537771 11.15925 -5.675008 1.078262 20.80745 6.39937 2.515783 -17.36245 6.855866 5.018006 -18.63815 11.48242 83.80533 28.40927 -12.13001 -0 0 19.24856 -22.9248 12.36793 13.66101 3.163871 -16.56457 -3.926566 -88.17796 23.21987 20.40269 0 0 -13.93996 -1.83032 3.353295 16.63951
1946.95 101.1637 2145.396 6.949223 1.05427 82.85976 -0.5385402 -7.177052 3.898028 -0 57.59645 -0 2.763421 -1.955724 -6.515998 -6.065928 -0.5686333 -9.14459 -0 16.17798 -0 -3.26062 -14.74944 14.49166 -3.49257 0.3703392 4.567991 -0.3623472 10.15636 -6.256131 1.161855 21.87844 6.301127 2.011386 -16.66362 7.269199 4.302995 -17.23937 10.82618 85.32813 28.09225 -13.96092 -0 0 16.92909 -21.2309 11.92275 12.22477 3.49604 -17.19037 -4.168727 -85.95438 24.78494 15.9178 0 0 -16.07409 -1.568314 4.776111 15.75244
1952.265 101.4825 2145.441 7.30197 1.091418 84.37744 -0.6656965 -13.0278 2.720964 -0 50.0763 -0 1.50891 -3.870582 -7.518715 -5.845133 4.571923 -9.202079 -0 14.16383 -0 -3.683631 -16.84257 13.87768 -3.444624 0.9186555 3.430926 0.06122067 9.432191 -6.809414 1.410021 22.61586 6.044925 1.6788 -16.07971 7.51347 3.345869 -15.99882 10.24612 86.88284 27.20264 -15.95535 -0 0 14.57783 -20.31618 11.59883 11.12839 4.166511 -18.17604 -4.444594 -83.81121 25.46086 11.36328 0 0 -18.55891 -1.057217 5.975641 14.66819
1957.578 101.1214 2145.67 7.056909 1.077596 85.64554 -0.6535867 -19.01083 1.751742 -0 39.18232 -0 0.5074635 -4.580456 -8.454969 -5.447455 9.728106 -8.971365 -0 12.47436 -0 -4.308815 -18.87789 13.13556 -3.330696 1.186277 2.514178 0.6219617 8.971211 -7.490636 1.64281 22.82233 5.848836 1.603853 -16.0185 7.607033 2.549711 -14.97857 9.856134 88.29945 26.42326 -18.22806 -0 0 12.28836 -19.85368 11.53796 10.40917 5.016507 -19.46665 -4.731164 -82.02032 25.51315 7.400847 0 0 -21.43692 -0.5316955 6.869717 13.72268
1963.098 100.095 2146.08 6.229732 0.9178289 86.63653 -0.4000738 -24.74002 1.073019 -0 27.3803 -0 -0.2573189 -4.867252 -9.18738 -4.97612 14.56178 -8.808877 -0 10.78314 -0 -5.231629 -20.79293 12.18917 -3.100614 1.259507 1.767863 1.240065 8.479834 -8.140582 1.892509 22.63387 5.682516 1.63343 -16.39629 7.690274 1.878414 -14.15489 9.516374 89.38574 25.73811 -20.32556 -0 0 10.50905 -19.34948 11.57133 9.812524 5.886402 -20.56864 -4.843454 -80.84378 25.48001 4.440664 0 0 -23.98674 -0.243719 7.504943 13.1453
1968.975 98.61361 2146.634 5.532362 0.7494199 87.39695 0.02563308 -28.21873 1.002154 -0 18.63206 -0 -0.4735757 -5.411899 -9.839043 -4.585154 18.0628 -8.690024 -0 10.54717 -0 -6.230321 -21.70659 11.52638 -2.807206 1.160181 1.348666 1.635747 7.971997 -8.492501 2.23225 22.37874 5.40785 1.563953 -16.59303 7.819281 1.293351 -13.45713 9.127779 90.07195 24.97531 -21.67027 -0 0 9.474331 -18.76674 11.60285 9.154896 6.550478 -21.05796 -4.677628 -80.13579 25.32892 2.396004 0 0 -25.45017 0.03725646 7.70772 12.64523
1975.241 97.03819 2147.276 5.477402 0.7343207 87.96856 0.4938264 -28.61281 1.514703 -0 14.68222 -0 -0.152559 -5.892448 -10.401 -4.404941 19.83604 -8.443068 -0 12.87078 -0 -6.83909 -21.15131 11.5494 -2.555779 0.8681967 1.341982 1.718981 7.795937 -8.553324 2.546598 22.25152 5.078943 1.433975 -16.36936 7.875238 0.9450101 -12.96058 8.86786 90.53477 24.25126 -22.35208 -0 0 8.816016 -18.43012 11.69376 8.559979 6.873405 -21.18102 -4.443174 -79.69085 24.75523 1.113069 0 0 -26.06693 0.6362103 7.549188 11.87343
1981.914 95.67419 2147.982 5.526315 0.711603 88.32696 1.190866 -27.60997 2.355908 -0 12.62856 -0 0.1925247 -5.999572 -10.72707 -4.292812 20.84556 -8.222244 -0 17.19667 -0 -7.294647 -19.71348 11.85195 -2.278123 0.4257839 1.5382 1.762213 7.860746 -8.531856 2.760103 22.1173 4.816604 1.39405 -16.24857 7.831447 0.9087912 -12.62049 8.804894 90.88705 23.85481 -22.90583 -0 0 8.111829 -18.07362 11.84135 8.0099 6.976445 -21.2462 -4.204366 -79.59811 24.07133 0.5637115 0 0 -26.4003 1.358212 7.354023 11.03712
1988.87 94.72677 2148.739 5.640852 0.6038799 88.47571 2.061076 -25.63326 3.305193 -0 12.47706 -0 0.1442303 -5.989617 -10.73906 -4.186868 21.02491 -8.253359 -0 23.00799 -0 -7.709676 -17.72424 12.29767 -1.973456 0.04116327 1.784262 1.818437 7.976295 -8.382545 2.887772 22.1139 4.628412 1.419924 -16.32852 7.754457 1.128654 -12.38986 8.885904 91.05194 23.84236 -23.15587 -0 0 7.415149 -17.427 11.87439 7.437264 6.818622 -21.11007 -3.950075 -79.98394 23.77669 0.8372047 0 0 -26.072 1.940576 7.386918 10.40187
1995.925 94.3623 2149.537 5.987276 0.4198549 88.42615 3.012154 -22.60674 4.231726 -0 14.23883 -0 -0.4170766 -5.885154 -10.45327 -4.064029 19.9956 -8.478079 -0 30.48593 -0 -8.111763 -15.29237 12.91465 -1.672242 -0.1317231 2.070465 1.867045 8.139106 -8.042158 2.967873 22.33706 4.473412 1.489129 -16.5292 7.6511 1.523101 -12.27021 9.103236 90.99029 24.09253 -22.91825 -0 0 6.799599 -16.55663 11.74196 6.881232 6.376363 -20.72383 -3.716103 -80.89544 23.9598 1.947977 0 0 -24.84928 2.289687 7.711028 10.05855
2002.887 94.6591 2150.371 6.711225 0.1873969 88.18657 3.922711 -18.62666 4.974596 -0 17.1662 -0 -1.467815 -5.801838 -9.955747 -3.895206 17.56958 -8.739841 -0 39.271 -0 -8.56175 -12.68576 13.71942 -1.402867 0.02302124 2.390613 1.876007 8.327832 -7.473187 3.06222 22.83844 4.285365 1.560619 -16.70188 7.527405 1.914484 -12.2609 9.412354 90.69719 24.31691 -22.06973 -0 0 6.369817 -15.65379 11.42085 6.405902 5.719445 -20.10191 -3.538879 -82.29143 24.5682 3.71235 0 0 -22.73271 2.333858 8.324342 10.05042
2009.609 95.55081 2151.229 7.826036 -0.02502399 87.75861 4.654559 -13.81321 5.41777 -0 19.96254 -0 -2.678094 -5.893332 -9.332703 -3.642997 13.58551 -8.74695 -0 48.23177 -0 -9.041362 -10.24168 14.71638 -1.198153 0.4839409 2.824726 1.790807 8.591095 -6.709489 3.183013 23.52458 4.035866 1.616014 -16.68376 7.345219 2.141675 -12.4671 9.795319 90.16114 24.24126 -20.61691 -0 0 6.361783 -15.13417 11.01027 6.189169 4.999966 -19.38464 -3.470765 -84.00879 25.29537 5.901613 0 0 -20.15765 2.047413 9.038008 10.38099
